<svg xmlns="http://www.w3.org/2000/svg" width="51.463" height="51.463" viewBox="0 0 51.463 51.463"><path d="M24.832 22.621v10.528c.903.115 2.122.205 3.747.205 2.96 0 5.373-.701 6.889-2.08 1.448-1.311 2.372-3.342 2.372-6.05 0-2.598-.905-4.407-2.372-5.603-1.398-1.175-3.363-1.764-6.209-1.764l-4.427.038v2.167l4.672-.034c3.479 0 5.422 1.919 5.397 5.284 0 3.864-2.146 5.85-5.756 5.828-.566 0-1.15 0-1.537-.066V22.62l-2.776.001zm-6.714 8.534c-1.451 0-2.874-.584-3.459-.937l-.654 2.175c.819.537 2.408 1.049 4.254 1.049 3.76 0 5.909-2.029 5.909-4.602 0-2.056-1.494-3.458-3.34-3.784v-.046c1.867-.657 2.801-1.962 2.801-3.553 0-1.987-1.61-3.715-4.741-3.715-1.822 0-3.506.562-4.369 1.17l.655 2.078c.63-.421 1.867-.96 3.104-.96 1.66 0 2.435.866 2.435 1.896 0 1.519-1.681 2.126-3.016 2.126h-1.283v2.104h1.332c1.748 0 3.429.771 3.429 2.567.029 1.195-.862 2.432-3.057 2.432zM8.832 11.011l8.335 2.675a.314.314 0 0 0 .256.137.285.285 0 0 0 .098-.017l.011-.003 7.917 2.541a.305.305 0 0 0 .189 0l7.599-2.438c.008 0 .014.003.021.003a.3.3 0 0 0 .194-.071L50.16 8.475a.31.31 0 0 0 0-.591L25.636.015a.302.302 0 0 0-.188 0L.926 7.883a.31.31 0 1 0 0 .591l7.906 2.537c-.001 0-.001 0 0 0zm8.695 2.138l-7.605-2.44 7.012-2.352 7.378 2.518-6.785 2.274zm.376-5.117l7.534-2.525 7.462 2.488-7.62 2.555-7.376-2.518zm7.64 7.69l-7.018-2.252 6.755-2.264 6.95 2.371-6.687 2.145zm7.677-2.464l-6.971-2.378 7.631-2.559 7.221 2.407-7.881 2.53zm8.293-7.497l7.534 2.418-6.978 2.239a.27.27 0 0 0-.084-.048l-7.127-2.376 6.646-2.229c.003 0 .006-.003.009-.004zm-.996-.32l-6.638 2.226-7.463-2.488 6.496-2.178 7.605 2.44zM25.543.636l6.371 2.044-6.478 2.172-6.391-2.131L25.543.636zm-7.49 2.403c.009.004.017.012.026.016l6.378 2.126-7.523 2.522-6.501-2.219 7.62-2.445zM9.479 5.791a.336.336 0 0 0 .103.06l6.383 2.177-7.041 2.361L2.037 8.18l7.442-2.389zM50.54 42.987l-24.521-8.006a.304.304 0 0 0-.193 0L1.304 42.987a.31.31 0 0 0 .002.592l7.693 2.469a.17.17 0 0 0 .072.021l16.756 5.378a.277.277 0 0 0 .189 0l24.521-7.868a.312.312 0 0 0 .003-.592zm-17.286-4.989l7.562 2.469-6.732 2.284L26.6 40.24l6.614-2.218c.014-.005.025-.017.04-.024zm-.144 5.081l-7.354 2.494-7.555-2.52 7.419-2.486 7.49 2.512zm-7.189-7.475l6.357 2.076-6.659 2.232-6.363-2.135 6.665-2.173zm-7.65 2.499l.012.006 6.359 2.132-7.421 2.487-6.493-2.164 7.543-2.461zM2.409 43.28l7.341-2.396c.014.008.023.018.037.021l6.455 2.152-7.105 2.381-6.728-2.158zm7.725 2.48l7.088-2.376 7.561 2.521-6.904 2.342-7.745-2.487zm15.787 5.065l-7.049-2.262 6.885-2.336 7.105 2.371-6.941 2.227zm7.889-2.53a.272.272 0 0 0-.117-.075l-6.961-2.32 7.353-2.494 7.315 2.453-7.59 2.436zm8.589-2.756l-7.346-2.464 6.654-2.258a.212.212 0 0 0 .064-.039l7.66 2.5-7.032 2.261zM1.09 10.664v29.175a.311.311 0 0 0 .622 0V10.664a.312.312 0 0 0-.622 0zm8.186 3.229V36.61a.265.265 0 1 0 .529 0V13.893a.265.265 0 1 0-.529 0zm40.584-3.472a.312.312 0 0 0-.312.311v29.175a.312.312 0 1 0 .624 0V10.731a.313.313 0 0 0-.312-.31zm-8.402 3.539v22.719a.265.265 0 1 0 .53 0V13.96a.264.264 0 1 0-.53 0z" fill="#FFF"/></svg>