<svg xmlns="http://www.w3.org/2000/svg" width="512" height="512" viewBox="0 0 512 512"><g fill="#FFF"><path d="M486.326 471.005c1.15.814 2.454 1.247 3.767 1.247 1.718 0 3.411-.724 4.765-2.035.363-.35.74-.761.843-.88a1.11 1.11 0 0 0 .119-.181c1.302-2.459 1.083-5.002-.597-6.979a20.312 20.312 0 0 0-.881-.987.923.923 0 0 0-.237-.168c-1.171-.601-2.354-.907-3.522-.907-1.603 0-3.152.568-4.601 1.69a.914.914 0 0 0-.166.162c-.105.136-.44.593-.736 1.028-1.931 2.829-1.416 6.123 1.246 8.01zm.835-7.633a.672.672 0 0 0 .08-.098c.103-.141.537-.522 1.047-.775 1.108-.559 2.351-.677 3.587-.348.58.154 1.381.649 1.785 1.104 1.05 1.172 1.378 2.538.956 3.948-.146.494-.402.985-.505 1.094-.961 1.288-2.305 1.989-3.803 1.989-1.83 0-3.566-1.064-4.221-2.588-.352-.819-.681-2.47 1.074-4.326zm15.615 17.725h-.617c-.183 0-.361-.031-.529-.097a1.453 1.453 0 0 1-.499-.254c.072 1.569.124 3.138.162 4.706.024 1.008.033 2.02.039 3.027a72.133 72.133 0 0 0-3.573.074c-.062-2.55-.193-5.75-.3-7.664-.059-1.047-1.693-1.053-1.634 0 .133 2.38.303 6.752.335 9.389-3.741-.017-7.483-.074-11.224-.088-.012-2.625-.062-6.854-.066-9.164 0-1.053-1.635-1.053-1.633 0 .003 1.72.032 4.505.052 6.899a87.295 87.295 0 0 1-3.962.076c-.185-3.665-.043-7.33.031-11 .331-.688.856-1.186 1.587-1.428 2.316-.243 4.645-.343 6.973-.378 2.336-.034 4.671.001 7.008.028.218.001.433-.001.649-.001a1.398 1.398 0 0 1-.031-.299c0-.438-.003-.884-.011-1.328-1.125-.011-2.25-.025-3.376-.035-2.403-.021-4.811-.021-7.212.087-1.35.062-2.697.154-4.039.298a.799.799 0 0 0-.336.034c-1.168.355-2.158 1.157-2.666 2.279a1.154 1.154 0 0 0-.09.319.81.81 0 0 0-.09.365c-.075 3.903-.238 7.802 0 11.702a.803.803 0 0 0 .438.687.715.715 0 0 0 .503.189c1.543 0 3.088-.006 4.632-.078l.007 1.414c0 .145.032.265.085.372a.693.693 0 0 0 .688.476c4.367.007 8.732.091 13.101.096.684.001.889-.736.617-1.183a54.459 54.459 0 0 0-.006-.546 72.4 72.4 0 0 1 3.756-.074.702.702 0 0 0 .47-.164c.45.067.957-.192.955-.777-.007-2.557-.108-5.104-.188-7.658-.002-.1-.005-.2-.006-.301z"/><path d="M511.565 469.608l-.085-.052a.718.718 0 0 0-.485-.166h-4.438l-.015-.307a142.38 142.38 0 0 1-.069-1.732c-.028-.808-.058-1.643-.104-2.461-.026-.428-.229-.865-1.554-.865-.278 0-.57.02-.825.035-.23.014-.442.027-.617.027a25.475 25.475 0 0 1-.559-.012c-.162-.006-.313-.01-.457-.01-.617 0-1.039.089-1.623.567-.162.134-.243.324-.24.566.013 1.491.167 2.98.314 4.235l.039.334-1.357.101-2.499.183a.821.821 0 0 0-.36.107l-.078.032c-.536.143-.557.525-.479 1.359l.014.153c.057.634.078 1.265.09 1.89.005.445.007.892.007 1.329a.77.77 0 0 0 .057.299c.11.284.374.386.506.418l.038.01a.784.784 0 0 0 .294.056h4.083l.008.314c.01.466.025.934.041 1.4.025.735.052 1.497.056 2.251.003.512.385.67.549.713l.035.013c.1.039.199.059.309.059h3.754c.214 0 .39-.067.523-.202l.259.198-.219-.237a.721.721 0 0 0 .222-.542c0-1.216-.008-2.521-.066-3.852l-.015-.335h4.489c.492 0 .705-.354.738-.686l.009-.073.037-.063a.752.752 0 0 0 .109-.403v-3.976c-.001-.407-.236-.593-.436-.675zm-1.133 4.31h-4.629c-.592 0-.712.492-.734.642l-.012.051a.786.786 0 0 0-.038.294c.068 1.051.102 2.181.11 3.663l.001.322h-2.309l-.007-.312-.037-1.111c-.024-.724-.05-1.471-.054-2.211a.928.928 0 0 0-.029-.212l-.013-.045.002-.045a.842.842 0 0 0-.215-.612.711.711 0 0 0-.53-.202h-4.189l-.002-.318-.006-.251a35.402 35.402 0 0 0-.068-1.682l-.021-.319 1.437-.105c.795-.059 1.589-.116 2.385-.173a.957.957 0 0 0 .213-.045l.057-.017.112.004c.224 0 .418-.073.532-.204.104-.117.143-.28.118-.483-.212-1.691-.364-3.114-.418-4.556l-.013-.334h2.767l.013.308c.019.442.034.887.051 1.331.03.864.062 1.76.115 2.638.004.061.015.116.027.169l.011.076c0 .29.158.78.746.78h4.629v2.96h-.002v-.001z"/></g></svg>