<svg xmlns="http://www.w3.org/2000/svg" width="612" height="792" viewBox="0 0 612 792"><g fill="#FFF"><path d="M274.436 373.132a6.987 6.987 0 0 1-6.979-6.979 6.987 6.987 0 0 1 6.979-6.979 6.987 6.987 0 0 1 6.979 6.979 6.987 6.987 0 0 1-6.979 6.979zm0-12.544a5.568 5.568 0 0 0-5.564 5.565c0 3.07 2.494 5.564 5.564 5.564s5.565-2.494 5.565-5.564a5.569 5.569 0 0 0-5.565-5.565z"/><path d="M286.195 384.892a.704.704 0 0 1-.704-.704c0-6.094-4.955-11.049-11.049-11.049-6.094 0-11.055 4.948-11.055 11.042a.708.708 0 0 1-1.415 0c0-6.872 5.591-12.464 12.463-12.464s12.464 5.592 12.464 12.464a.71.71 0 0 1-.704.711zm9.4-13.953H284.62a.703.703 0 1 1 0-1.408h10.975a.704.704 0 1 1 0 1.408z"/><path d="M290.104 376.423a.704.704 0 0 1-.704-.704v-10.975a.704.704 0 1 1 1.408 0v10.975a.7.7 0 0 1-.704.704z"/></g></svg>