<svg xmlns="http://www.w3.org/2000/svg" width="612" height="792" viewBox="0 0 612 792"><path fill="#FFF" d="M380.432 90c40.979 0 61.463 27.95 61.463 59.909 0 39.915-35.582 76.836-81.953 76.836-38.825 0-61.475-22.962-60.398-60.875-.001-31.953 26.958-75.87 80.888-75.87zM254.243 702c-32.356 0-56.083-19.964-33.434-107.804l37.148-155.797c6.469-24.951 7.527-34.927 0-34.927-9.719 0-51.72 17.233-76.561 34.211l-16.157-26.959C243.96 343.857 334.53 304.64 373.343 304.64c32.344 0 37.748 38.929 21.573 98.826L352.39 567.237c-7.552 28.941-4.303 38.917 3.226 38.917 9.706 0 41.536-12.013 72.803-36.971l18.342 24.964C370.187 672.012 286.6 702 254.243 702z"/></svg>