<svg xmlns="http://www.w3.org/2000/svg" width="485.227" height="485.227" viewBox="0 0 485.227 485.227"><path fill="none" stroke="#FFF" stroke-width="19.843" d="M30.345 166.795c-40.457 42.47-40.457 109.18 0 151.626 0 16.75 13.562 30.329 30.324 30.329h60.651c16.764 0 30.327-13.579 30.327-30.329 8.678-9.104 15.105-19.468 20.047-30.321h70.93v-15.166h212.282l30.316-30.325-30.316-30.325h-67.794l-24.999 22.829-44.456-22.829h-75.032V197.12h-70.93c-4.942-10.863-11.369-21.201-20.047-30.325 0-16.762-13.562-30.322-30.327-30.322H60.669c-16.762 0-30.324 13.562-30.324 30.322zm41.955 45.49c16.764 0 30.327 13.562 30.327 30.326 0 16.747-13.564 30.325-30.327 30.325-16.762 0-30.324-13.578-30.324-30.325.001-16.763 13.563-30.326 30.324-30.326z"/></svg>