<svg xmlns="http://www.w3.org/2000/svg" width="304.055" height="398.546" viewBox="0 0 304.055 398.546"><path fill="none" stroke="#000" stroke-width="3" d="M88.998 1.948c16.25-5.5 34 41.5 34 41.5s9.25 32.5 11.25 37.5 10.25 14.75 12.75 21.25 1.75 21 1.5 25-3.25 31.5-13.5 32.25-14-26-18.25-31.25-17.75-12.25-20-18.5-.5-11.75-1-16.25-23-86-6.75-91.5z"/><path fill="none" stroke="#BDBFC1" stroke-width="5" d="M80.427 101.369c5.625 14.875 29.625 29.208 31.625 32.875 2 3.666 7.5 33 23 32 9.094-.185 17.946-16.212 17.946-16.212l19.971 11.046 3-67.25-22.917 7.25s-4.375-10.958-4.5-12.708 1-8.625 1.375-12.625"/><path fill="none" stroke="#000" stroke-width="3" stroke-linecap="round" stroke-linejoin="round" d="M93.623 85.698l.875 8.333s1.5 9.417-2.25 9.667c-5.09.339-35.125-46.875-35.125-46.875m74.375 14.5s5 17.125 9.75 16.125c3.982-.838 1.625-47 1.625-47"/><path fill="none" stroke="#E30000" stroke-width="3" stroke-linecap="round" stroke-linejoin="bevel" d="M185.178 48.5l18.64 46.395"/><path fill="#E30000" d="M209.313 100.323c-.459-5.161-.38-8.667-.382-12.954l-14.042 5.642c1.159 1.069 5.449 5.573 8.687 9.617 3.467 4.328 6.28 8.385 7.807 11.136-.801-3.042-1.578-7.917-2.07-13.441z"/><path fill="none" d="M0 219.033h281.333V311.7H0z"/><text transform="translate(19.079 231.813)"><tspan x="0" y="0" fill="#6D6D6D" font-family="'MyriadPro-Regular'" font-size="18">Too much leverage creates large </tspan><tspan x="-2.295" y="21.6" fill="#6D6D6D" font-family="'MyriadPro-Regular'" font-size="18">ledges that make it impossible to </tspan><tspan x="46.943" y="43.199" fill="#6D6D6D" font-family="'MyriadPro-Regular'" font-size="18">remove the aligners</tspan></text><path d="M147.664 139.531l19.25 12.25 3-50.25-21 7.75z"/></svg>