<svg xmlns="http://www.w3.org/2000/svg" width="314.555" height="392.212" viewBox="0 0 314.555 392.212"><path fill="none" stroke="#000" stroke-width="3" d="M97.165 1.948c16.25-5.5 34 41.5 34 41.5s9.25 32.5 11.25 37.5 10.25 14.75 12.75 21.25 1.75 21 1.5 25-3.25 31.5-13.5 32.25-14-26-18.25-31.25-17.75-12.25-20-18.5-.5-11.75-1-16.25-23-86-6.75-91.5z"/><path fill="none" stroke="#BDBFC1" stroke-width="5" d="M100.04 141.489c5.625 14.875 29.625 29.208 31.625 32.875 2 3.666 7.5 33 23 32 24.5-.5 26-49 20-63.667-1.961-4.794-5.375-12.458-5.5-14.208s1-8.625 1.375-12.625"/><path fill="none" stroke="#000" stroke-width="3" stroke-linecap="round" stroke-linejoin="round" d="M101.79 85.698l.875 8.333s1.5 9.417-2.25 9.667c-5.09.339-35.125-46.875-35.125-46.875m74.375 14.5s5 17.125 9.75 16.125c3.982-.838 1.625-47 1.625-47"/><path fill="none" stroke="#E30000" stroke-width="3" stroke-linecap="round" stroke-linejoin="bevel" d="M204.123 85.569l13.084 48.258"/><path fill="#E30000" d="M222.028 139.861c.148-5.18.637-8.652 1.137-12.91l-14.606 3.96c1.026 1.197 4.759 6.172 7.502 10.567 2.938 4.704 5.256 9.062 6.45 11.973-.44-3.115-.64-8.047-.483-13.59z"/><path fill="none" d="M0 233.698h284v62.666H0z"/><text transform="translate(7.885 246.477)"><tspan x="0" y="0" fill="#6F6F70" font-family="'MyriadPro-Regular'" font-size="18">No leverage. Clear plastic tray (gray) </tspan><tspan x="24.803" y="21.601" fill="#6F6F70" font-family="'MyriadPro-Regular'" font-size="18">slips away from tooth (black).</tspan></text></svg>