<svg xmlns="http://www.w3.org/2000/svg" width="295.45" height="398.616" viewBox="0 0 295.45 398.616"><path fill="none" stroke="#000" stroke-width="3" d="M80.331 1.948c16.25-5.5 34 41.5 34 41.5s9.25 32.5 11.25 37.5 10.25 14.75 12.75 21.25 1.75 21 1.5 25-3.25 31.5-13.5 32.25-14-26-18.25-31.25-17.75-12.25-20-18.5-.5-11.75-1-16.25-23-86-6.75-91.5z"/><path fill="none" stroke="#BDBFC1" stroke-width="5" d="M98.26 143.369c5.625 14.875 29.625 29.208 31.625 32.875 2 3.666 7.5 33 23 32 9.094-.185 17.946-16.212 17.946-16.212l19.971 11.046 3-64.75-22.917 6.25s-4.375-12.458-4.5-14.208 1-8.625 1.375-12.625"/><path fill="none" stroke="#000" stroke-width="3" stroke-linecap="round" stroke-linejoin="round" d="M84.956 85.698l.875 8.333s1.5 9.417-2.25 9.667c-5.09.339-35.125-46.875-35.125-46.875m74.375 14.5s5 17.125 9.75 16.125c3.982-.838 1.625-47 1.625-47"/><path fill="none" stroke="#E30000" stroke-width="3" stroke-linecap="round" stroke-linejoin="bevel" d="M216.699 135.856l-20.401-45.649"/><path fill="#E30000" d="M190.6 84.993c.656 5.14.711 8.646.877 12.93l13.816-6.175c-1.199-1.024-5.658-5.361-9.048-9.278-3.63-4.192-6.596-8.139-8.227-10.83.917 3.01 1.879 7.852 2.582 13.353z"/><path fill="none" d="M0 237.032h275.999v92.666H0z"/><text transform="translate(16.412 249.813)"><tspan x="0" y="0" fill="#6D6D6D" font-family="'MyriadPro-Regular'" font-size="18">Too much leverage creates large </tspan><tspan x="-2.295" y="21.6" fill="#6D6D6D" font-family="'MyriadPro-Regular'" font-size="18">ledges that make it impossible to </tspan><tspan x="54.584" y="43.199" fill="#6D6D6D" font-family="'MyriadPro-Regular'" font-size="18">insert the aligners</tspan></text><path d="M138.997 139.531l19.25 12.25 3-50.25-21 7.75z"/></svg>