<svg xmlns="http://www.w3.org/2000/svg" width="303.333" height="395.511" viewBox="0 0 303.333 395.511"><path fill="none" stroke="#000" stroke-width="3" d="M103.499 1.948c16.25-5.5 34 41.5 34 41.5s9.25 32.5 11.25 37.5 10.25 14.75 12.75 21.25 1.75 21 1.5 25-3.25 31.5-13.5 32.25-14-26-18.25-31.25-17.75-12.25-20-18.5-.5-11.75-1-16.25-23-86-6.75-91.5z"/><path fill="none" stroke="#BDBFC1" stroke-width="5" d="M97.053 101.391c4.1 15.366 26.536 32.042 28.157 35.891 1.621 3.849 4.142 33.587 19.664 34.152 13.647.877 18.859-17.525 18.859-17.525l7.751-5.415 2.903-15.452-4.783-9.027s1.536-10.781.58-14.013c-1.469-4.968-4.094-12.936-4.042-14.69.052-1.753 1.863-8.48 2.638-12.422"/><path fill="none" stroke="#000" stroke-width="3" stroke-linecap="round" stroke-linejoin="round" d="M108.124 85.698l.875 8.333s1.5 9.417-2.25 9.667c-5.09.339-35.125-46.875-35.125-46.875m74.375 14.5s5 17.125 9.75 16.125c3.982-.838 1.625-47 1.625-47"/><path fill="none" stroke="#E30000" stroke-width="3" stroke-linecap="round" stroke-linejoin="bevel" d="M202.878 58.255l15.787 47.443"/><path fill="#E30000" d="M223.82 111.45c-.145-5.179.146-8.674.406-12.953l-14.36 4.778c1.092 1.137 5.1 5.894 8.086 10.127 3.198 4.53 5.76 8.751 7.115 11.59-.612-3.085-1.092-7.999-1.247-13.542z"/><path stroke="#000" stroke-width="3" stroke-linecap="round" stroke-linejoin="round" d="M163.999 119.365l4.166 6.333-1.333 12.5-5.333 3.167z"/><path fill="none" d="M0 213.033h303.333V305.7H0z"/><text transform="translate(11.052 225.811)"><tspan x="0" y="0" fill="#6D6D6D" font-family="'MyriadPro-Regular'" font-size="18">Attachments provide some leverage - </tspan><tspan x="14.382" y="21.6" fill="#6D6D6D" font-family="'MyriadPro-Regular'" font-size="18">but there is still not much control.</tspan></text></svg>