<svg xmlns="http://www.w3.org/2000/svg" width="428.703" height="428.703" viewBox="0 0 428.703 428.703"><path d="M45.292 56.132C20.316 56.132 0 76.449 0 101.424c0 24.976 20.316 45.295 45.292 45.295 24.974 0 45.292-20.319 45.292-45.295 0-24.974-20.318-45.292-45.292-45.292zm0 68.74c-12.927 0-23.444-10.52-23.444-23.447s10.518-23.443 23.444-23.443 23.444 10.517 23.444 23.443c.001 12.927-10.517 23.447-23.444 23.447zm81.96-6.097h284.102c9.584 0 17.351-7.77 17.351-17.35 0-9.582-7.766-17.35-17.351-17.35H127.252c-9.579 0-17.35 7.768-17.35 17.35.001 9.58 7.771 17.35 17.35 17.35zm-81.96 50.285C20.316 169.06 0 189.376 0 214.352s20.316 45.292 45.292 45.292c24.974 0 45.292-20.316 45.292-45.292S70.266 169.06 45.292 169.06zm0 68.736c-12.927 0-23.444-10.519-23.444-23.444 0-12.926 10.518-23.443 23.444-23.443s23.444 10.517 23.444 23.443c.001 12.928-10.517 23.444-23.444 23.444zm366.062-40.795H127.252c-9.579 0-17.35 7.769-17.35 17.35 0 9.581 7.771 17.351 17.35 17.351h284.102c9.584 0 17.351-7.771 17.351-17.351-.001-9.581-7.767-17.35-17.351-17.35zM45.292 281.984C20.316 281.984 0 302.305 0 327.279c0 24.976 20.316 45.291 45.292 45.291 24.974 0 45.292-20.315 45.292-45.291 0-24.974-20.318-45.295-45.292-45.295zm0 68.741c-12.927 0-23.444-10.518-23.444-23.445 0-12.926 10.518-23.445 23.444-23.445s23.444 10.52 23.444 23.445c0 12.927-10.517 23.445-23.444 23.445zm366.062-40.797H127.252c-9.579 0-17.35 7.771-17.35 17.352 0 9.58 7.771 17.351 17.35 17.351h284.102c9.584 0 17.351-7.771 17.351-17.351-.001-9.582-7.767-17.352-17.351-17.352z" fill="#FFF"/></svg>