<svg xmlns="http://www.w3.org/2000/svg" width="894.935" height="129.007" viewBox="0 0 894.935 129.007"><path fill="none" d="M93.954 34.007h800.981v95H93.954z"/><text transform="translate(93.954 85.414)"><tspan x="0" y="0" fill="#18C0DD" font-family="'HelveticaNeue-Light'" font-size="72">ORTHO</tspan><tspan x="245.447" y="0" fill="#1670B9" font-family="'HelveticaNeue-Light'" font-size="72">CURE </tspan><tspan x="476.204" y="0" fill="#1670B9" font-family="'HelveticaNeue-LightItalic'" font-size="72">Learn</tspan></text><path fill="#2960AC" d="M53.775 3.438C32.189 6.65 17.338 27.055 20.607 49.018c2.079 13.948 10.979 22.96 22.724 28.465-7.091-5.748-12.187-11.89-13.747-21.683-3.319-20.844 10.591-40.388 31.073-43.647 13.072-2.09 25.646 2.964 33.906 12.296C86.896 9.813 70.79.901 53.775 3.438z"/><path fill="#15BAE3" d="M.707 40.269c-4.494 25.515 12.917 49.923 38.895 54.503 16.502 2.9 32.491-2.91 43.109-14.078-9.146 5.832-20.463 8.438-32.093 6.516-24.739-4.1-41.524-27.127-37.503-51.421C15.682 20.276 26.103 5.801 39.73 0 20.351 3.133 4.248 20.144.707 40.269z"/></svg>