<svg xmlns="http://www.w3.org/2000/svg" width="479.234" height="116.416" viewBox="0 0 479.234 116.416"><path fill="#2960AC" d="M53.775 3.438C32.189 6.65 17.338 27.055 20.607 49.018c2.079 13.956 10.979 22.969 22.724 28.474C36.24 71.744 31.144 65.601 29.584 55.8c-3.319-20.844 10.591-40.388 31.073-43.647 13.073-2.09 25.647 2.964 33.907 12.296C86.896 9.813 70.79.901 53.775 3.438z"/><path fill="#15BAE3" d="M.707 40.269c-4.494 25.523 12.917 49.932 38.894 54.512 16.503 2.9 32.492-2.91 43.11-14.078-9.147 5.832-20.463 8.438-32.093 6.516-24.739-4.1-41.524-27.127-37.503-51.429C15.682 20.276 26.103 5.801 39.729 0 20.351 3.133 4.248 20.144.707 40.269z"/><path fill="none" d="M107.133 32.283H467v71.835H107.133z"/><text transform="translate(107.133 88.687)" fill="#15BAE3" font-family="'HelveticaNeue-UltraLight'" font-size="79">Ortho</text><text transform="translate(284.091 88.687)" fill="#2960AC" font-family="'HelveticaNeue-UltraLight'" font-size="79">Cure</text><path fill="none" d="M433.153 24.286H468.1v15.533h-34.947z"/><text transform="translate(433.154 38.07)" fill="#1F4A82" font-family="'HelveticaNeue-UltraLight'" font-size="36">TM</text></svg>