<svg xmlns="http://www.w3.org/2000/svg" width="612" height="792" viewBox="0 0 612 792"><path fill="#FFF" d="M601.148 546.254l-156.9-122.036c-14.956-11.628-33.625-18.031-52.568-18.031H268.246a29.484 29.484 0 0 1-18.013-6.178L93.345 277.981c-5.935-4.622-13.314-6.652-20.781-5.717a28.227 28.227 0 0 0-8.203 2.326l-9.122-19.434a28.173 28.173 0 0 0 5.913-6.42c4.169-6.255 5.653-13.76 4.178-21.13l-9.582-47.905c-1.477-7.388-5.738-13.755-11.999-17.924-6.25-4.162-13.754-5.637-21.112-4.156-7.374 1.472-13.732 5.729-17.903 11.985-4.169 6.255-5.653 13.76-4.177 21.13l9.581 47.905c2.621 13.114 14.219 22.633 27.577 22.633.181 0 .362-.009.544-.013l12.494 26.616c-5.697 11.703-2.648 26.227 8.025 34.532l156.899 122.037c14.957 11.627 33.625 18.031 52.569 18.031h.037V578.65H114.385c-15.52 0-28.145 12.626-28.145 28.146v19.162a8.982 8.982 0 0 0 8.982 8.982h306.601a8.982 8.982 0 0 0 8.983-8.982v-19.162c0-15.52-12.626-28.146-28.146-28.146h-.599V462.478h9.618c6.492 0 12.89 2.194 18.013 6.178l156.893 122.029c4.986 3.879 10.957 5.931 17.268 5.931 8.759 0 16.862-3.961 22.23-10.864 9.525-12.25 7.313-29.967-4.935-39.498zM27.753 235.119l-9.582-47.907a10.108 10.108 0 0 1 1.51-7.641 10.115 10.115 0 0 1 6.487-4.335 10.246 10.246 0 0 1 2.032-.204c1.979 0 3.912.578 5.591 1.697a10.13 10.13 0 0 1 4.341 6.494l9.582 47.908a10.108 10.108 0 0 1-1.51 7.641 10.083 10.083 0 0 1-4.659 3.787 8.825 8.825 0 0 0-1.369.434c-.158.04-.312.086-.473.119-.651.132-1.322.2-1.989.2-4.822-.003-9.012-3.446-9.961-8.193zm336.343 343.53h-10.179a8.982 8.982 0 0 0 0 17.964h28.743c5.613 0 10.18 4.566 10.18 10.18v10.181H104.204v-10.181c0-5.613 4.567-10.18 10.18-10.18h201.207c4.961 0 8.982-4.021 8.982-8.982s-4.021-8.982-8.982-8.982h-29.343V462.477h77.848v116.172zm227.804-3.926a10.122 10.122 0 0 1-8.048 3.927 10.06 10.06 0 0 1-6.237-2.146l-156.894-122.03c-8.261-6.425-18.574-9.962-29.042-9.962H268.246c-14.97 0-29.722-5.061-41.541-14.248L69.809 308.229c-4.43-3.447-5.231-9.857-1.786-14.287a10.121 10.121 0 0 1 6.775-3.853 10.094 10.094 0 0 1 7.512 2.068l156.894 122.03c8.26 6.425 18.574 9.963 29.042 9.963h123.435c14.97 0 29.723 5.061 41.541 14.247l156.896 122.034c4.43 3.45 5.23 9.859 1.782 14.292z"/></svg>