<svg xmlns="http://www.w3.org/2000/svg" width="571.102" height="140.975" viewBox="0 0 571.102 140.975"><path fill="#255FAC" d="M79.366 5.073C47.508 9.814 25.59 39.929 30.415 72.343c3.068 20.596 16.204 33.898 33.538 42.023-10.467-8.484-17.988-17.549-20.289-32.014-4.898-30.762 15.631-59.606 45.859-64.415 19.294-3.085 37.852 4.375 50.042 18.148C128.248 14.483 104.476 1.33 79.366 5.073z"/><path fill="#0CB9E3" d="M1.042 59.431c-6.632 37.67 19.064 73.692 57.402 80.45 24.357 4.282 47.953-4.294 63.625-20.775-13.5 8.606-30.201 12.453-47.365 9.614-36.51-6.048-61.283-40.035-55.349-75.901C23.145 29.924 38.524 8.561 58.637 0 30.035 4.624 6.269 29.729 1.042 59.431z"/><path fill="none" d="M148.134 42.871h392.867v79.412H148.134z"/><text transform="translate(148.134 108.558)"><tspan x="0" y="0" fill="#0CB9E3" font-family="'HelveticaNeue-UltraLight'" font-size="92">Ortho</tspan><tspan x="206.078" y="0" fill="#255FAC" font-family="'HelveticaNeue-UltraLight'" font-size="92">Cure</tspan></text><path fill="none" d="M536.153 32.286h34.948v15.533h-34.948z"/><text transform="translate(536.154 46.148)" fill="#255FAC" font-family="'HelveticaNeue-Light'" font-size="19.417">TM</text></svg>