<svg xmlns="http://www.w3.org/2000/svg" width="564" height="147" viewBox="0 0 564 147"><path opacity=".25" fill="#FFF" d="M564 135c0 6.627-5.373 12-12 12H12c-6.627 0-12-5.373-12-12V12C0 5.373 5.373 0 12 0h540c6.627 0 12 5.373 12 12v123z"/><path fill="#255FAC" d="M92.775 25.155c-21.586 3.212-36.437 23.617-33.167 45.58 2.079 13.956 10.979 22.969 22.724 28.474-7.092-5.748-12.188-11.89-13.747-21.691-3.319-20.844 10.591-40.388 31.073-43.647 13.073-2.09 25.647 2.964 33.907 12.296-7.669-14.636-23.776-23.549-40.79-21.012z"/><path fill="#0CB9E3" d="M39.706 61.986C35.212 87.51 52.623 111.918 78.6 116.497c16.503 2.901 32.492-2.91 43.11-14.077-9.147 5.832-20.463 8.438-32.093 6.515-24.738-4.098-41.523-27.126-37.503-51.429 2.567-15.513 12.988-29.988 26.616-35.789-19.38 3.133-35.483 20.144-39.024 40.269z"/><path fill="none" d="M144.133 50.588h371.002v58.248H144.133z"/><text transform="translate(144.133 107.707)"><tspan x="0" y="0" fill="#0CB9E3" font-family="'HelveticaNeue-Light'" font-size="80">Ortho</tspan><tspan x="195.597" y="0" fill="#255FAC" font-family="'HelveticaNeue-Light'" font-size="80">Cure</tspan></text><path fill="none" d="M501.152 40.003H536.1v15.533h-34.948z"/><text transform="translate(501.153 53.865)" fill="#255FAC" font-family="'HelveticaNeue'" font-size="19.417">TM</text></svg>