<svg xmlns="http://www.w3.org/2000/svg" width="1385.931" height="122.678" viewBox="0 0 1385.931 122.678"><path opacity=".25" fill="#FFF" d="M1385.931 100.494c0 6.627-5.373 12-12 12H12c-6.627 0-12-5.373-12-12V12C0 5.373 5.373 0 12 0h1361.931c6.627 0 12 5.373 12 12v88.494z"/><path fill="#255FAC" d="M502.649 12.045c-21.586 3.212-36.437 23.617-33.167 45.58 2.079 13.956 10.979 22.969 22.724 28.474-7.092-5.748-12.188-11.89-13.747-21.691-3.319-20.844 10.591-40.388 31.073-43.647 13.073-2.09 25.647 2.964 33.907 12.296-7.669-14.636-23.776-23.548-40.79-21.012z"/><path fill="#0CB9E3" d="M449.58 48.877c-4.494 25.523 12.917 49.932 38.894 54.511 16.503 2.901 32.492-2.91 43.11-14.077-9.147 5.832-20.463 8.438-32.093 6.515-24.738-4.098-41.523-27.126-37.503-51.429 2.567-15.513 12.988-29.988 26.616-35.789-19.38 3.133-35.483 20.143-39.024 40.269z"/><path fill="none" d="M554.007 37.479h346.002v58.248H554.007z"/><text transform="translate(554.007 94.598)"><tspan x="0" y="0" fill="#0CB9E3" font-family="'HelveticaNeue-UltraLight'" font-size="80">Ortho</tspan><tspan x="179.198" y="0" fill="#255FAC" font-family="'HelveticaNeue-UltraLight'" font-size="80">Cure</tspan></text><path fill="none" d="M883.026 26.894h34.948v15.533h-34.948z"/><text transform="translate(883.027 40.678)" fill="#255FAC" font-family="'MyriadPro-Regular'" font-size="19.417">TM</text></svg>