<svg xmlns="http://www.w3.org/2000/svg" width="94.566" height="95.521" viewBox="0 0 94.566 95.521"><path fill="#255FAC" d="M53.776 3.438C32.19 6.65 17.339 27.055 20.608 49.018c2.079 13.956 10.979 22.969 22.724 28.474C36.24 71.743 31.144 65.601 29.585 55.8c-3.319-20.844 10.591-40.388 31.073-43.647 13.073-2.09 25.647 2.964 33.907 12.296C86.897 9.813 70.79.901 53.776 3.438z"/><path fill="#0CB9E3" d="M.707 40.269C-3.787 65.792 13.624 90.201 39.601 94.78c16.503 2.901 32.492-2.91 43.11-14.077-9.147 5.832-20.463 8.438-32.093 6.515-24.739-4.099-41.524-27.127-37.503-51.429C15.682 20.276 26.103 5.801 39.73 0 20.351 3.133 4.248 20.144.707 40.269z"/></svg>