<svg xmlns="http://www.w3.org/2000/svg" width="511.475" height="127.178" viewBox="0 0 511.475 127.178"><path fill="#FFF" d="M511.475 110.994c0 6.627-5.373 12-12 12H12c-6.627 0-12-5.373-12-12V12C0 5.373 5.373 0 12 0h487.475c6.627 0 12 5.373 12 12v98.994z"/><path fill="#255FAC" d="M84.169 16.545c-21.586 3.212-36.437 23.617-33.167 45.58 2.079 13.956 10.979 22.969 22.724 28.474-7.092-5.748-12.188-11.89-13.747-21.691C56.66 48.064 70.57 28.52 91.052 25.261c13.073-2.09 25.647 2.964 33.907 12.296-7.668-14.636-23.776-23.548-40.79-21.012z"/><path fill="#0CB9E3" d="M31.1 53.377c-4.494 25.523 12.917 49.932 38.894 54.511 16.503 2.901 32.492-2.91 43.11-14.077-9.147 5.832-20.463 8.438-32.093 6.515C56.273 96.228 39.488 73.2 43.508 48.897c2.567-15.513 12.988-29.988 26.616-35.789-19.38 3.133-35.483 20.143-39.024 40.269z"/><path fill="none" d="M135.527 41.979h346.002v58.248H135.527z"/><text transform="translate(135.527 99.098)"><tspan x="0" y="0" fill="#0CB9E3" font-family="'HelveticaNeue-UltraLight'" font-size="80">Ortho</tspan><tspan x="179.198" y="0" fill="#255FAC" font-family="'HelveticaNeue-UltraLight'" font-size="80">Cure</tspan></text><path fill="none" d="M464.547 31.394h34.948v15.533h-34.948z"/><text transform="translate(464.548 45.178)" fill="#255FAC" font-family="'MyriadPro-Regular'" font-size="19.417">TM</text></svg>