<svg xmlns="http://www.w3.org/2000/svg" width="723" height="116" viewBox="0 0 723 116"><path opacity=".5" fill="#FFF" d="M0 0h723v116H0z"/><path fill="#255FAC" d="M86.775 11.155c-21.586 3.212-36.437 23.617-33.167 45.58 2.079 13.956 10.979 22.969 22.724 28.474-7.092-5.748-12.188-11.89-13.747-21.691-3.319-20.844 10.591-40.388 31.073-43.647 13.073-2.09 25.647 2.964 33.907 12.296-7.669-14.636-23.776-23.549-40.79-21.012z"/><path fill="#0CB9E3" d="M33.706 47.986C29.212 73.51 46.623 97.918 72.6 102.497c16.503 2.901 32.492-2.91 43.11-14.077-9.147 5.832-20.463 8.438-32.093 6.515-24.738-4.098-41.523-27.126-37.503-51.429C48.681 27.993 59.102 13.518 72.73 7.717 53.35 10.85 37.247 27.861 33.706 47.986z"/><path fill="none" d="M135.133 36.588h330.002v58.248H135.133z"/><text transform="translate(135.133 87.994)"><tspan x="0" y="0" fill="#0CB9E3" font-family="'HelveticaNeue-UltraLight'" font-size="72">Ortho</tspan><tspan x="161.278" y="0" fill="#255FAC" font-family="'HelveticaNeue-UltraLight'" font-size="72">Cure</tspan></text><path fill="none" d="M437.152 32.003H472.1v15.533h-34.948z"/><text transform="translate(437.153 45.865)" fill="#255FAC" font-family="'HelveticaNeue-Light'" font-size="19.417">TM</text></svg>