<svg xmlns="http://www.w3.org/2000/svg" width="92.197" height="197.224" viewBox="0 0 92.197 197.224"><path fill="none" d="M9.528 1.716h82.669v195.508H9.528z"/><text transform="translate(9.528 10.284)"><tspan x="0" y="0" fill="#087EBF" font-family="'HelveticaNeue-Light'" font-size="12">Scan</tspan><tspan x="0" y="57.6" fill="#087EBF" font-family="'HelveticaNeue-Light'" font-size="12">Approve Setup</tspan><tspan x="0" y="115.2" fill="#087EBF" font-family="'HelveticaNeue-Light'" font-size="12">3D Print</tspan><tspan x="0" y="172.8" fill="#087EBF" font-family="'HelveticaNeue-Light'" font-size="12">Ship</tspan></text><path fill="none" stroke="#087EBF" stroke-width=".5" d="M1.896 59.873V10.926"/><path fill="#087EBF" d="M2.665 61.645c.375-1.24.72-2.046 1.119-3.041H0c.169.356.745 1.801 1.119 3.041.401 1.327.675 2.53.773 3.311.098-.781.372-1.984.773-3.311z"/><path fill="none" stroke="#087EBF" stroke-width=".5" d="M1.896 119.873V70.926"/><path fill="#087EBF" d="M2.665 121.645c.375-1.24.72-2.046 1.119-3.041H0c.169.356.745 1.801 1.119 3.041.401 1.327.675 2.53.773 3.311.098-.781.372-1.984.773-3.311z"/><path fill="none" stroke="#087EBF" stroke-width=".5" d="M1.896 179.873v-48.947"/><path fill="#087EBF" d="M2.665 181.645c.375-1.24.72-2.046 1.119-3.041H0c.169.356.745 1.801 1.119 3.041.401 1.327.675 2.53.773 3.311.098-.781.372-1.984.773-3.311z"/></svg>