<svg xmlns="http://www.w3.org/2000/svg" width="263.844" height="525.399" viewBox="0 0 263.844 525.399"><path fill="none" stroke="#636568" d="M48.984 282.489c.109.289-.221 1.42-.007 2.819.591 3.862 1.916 10.378 1.945 11.669.111 4.919-4.229 11.058-10.07 12.96-11.822 3.849-20.36-7.9-20.51-15.867-.117-6.033 12.463-15.474 23.228-17.269 2.062-.34 4.994 4.577 5.414 5.688z"/><g fill="none" stroke="#636568"><path d="M38.417 326.081c1.301 7.831-2.254 13.308-12.55 15.018-8.973 1.493-22.292 1.177-23.452-6.68-1.826-12.391 5.193-28.142 15.758-29.659 9.003-1.302 18.94 13.484 20.244 21.321z"/><path stroke-width="2" d="M24.749 333.152l5.016-8.956"/></g><path fill="none" stroke="#636568" stroke-width="2" d="M40.154 303.417l7.881-7.524"/><g fill="none" stroke="#636568"><path d="M86.875 267.97c3.825 5.814.125 10.82-1.904 17.36-2.029 6.538-3.785 12.485-7.421 14.88-7.275 4.787-16.413-2.838-22.98-8.759-8.188-7.383-4.537-15.337 4.373-21.203 7.277-4.788 21.557-11.965 27.932-2.278z"/><path stroke-width="2" d="M68.068 288.464l9.83-7.884"/></g><g fill="none" stroke="#636568"><path d="M88.024 280.793c1.567 6.779 7.747 7.555 13.879 10.598 6.133 3.041 11.648 5.872 15.896 4.895 8.483-1.962 9.266-13.845 9.511-22.677.309-11.019-7.969-13.867-18.364-11.463-8.485 1.962-23.535 7.352-20.922 18.647z"/><path stroke-width="2" d="M101.931 284.186l11.623-1.03"/></g><path fill="none" stroke="#636568" d="M117.618 302.324c-.061.307.437 1.376.434 2.789-.003 3.91-.332 10.548-.171 11.829.632 4.879 5.847 10.299 11.909 11.297 12.257 2.027 18.926-10.874 17.874-18.773-.795-5.979-14.637-13.424-25.548-13.576-2.087-.026-4.248 5.277-4.498 6.434z"/><path fill="none" stroke="#636568" stroke-width="2" d="M124.344 314.523l7.165 6.807"/><g fill="none" stroke="#636568"><path d="M147.943 316.945c-1.362 7.824 2.148 13.324 12.419 15.127 8.959 1.561 22.281 1.36 23.503-6.482 1.932-12.385-4.962-28.186-15.511-29.795-8.991-1.374-19.036 13.329-20.411 21.15z"/><path stroke-width="2" d="M155.512 314.165l5.732 7.523"/></g><path fill="none" stroke="#F30000" stroke-width="4" d="M21.883 340.317s7.882-19.704 11.822-24.72c3.941-5.016 13.256-26.869 25.078-22.928 7.75 2.583 24.511-25.646 34.751-11.822 7.165 9.673 26.869-9.315 24.719 18.271-1.433 17.196 20.779 32.959 30.094 12.897 3.577-7.704 19.704 17.196 19.704 17.196"/><path fill="none" stroke="#636568" d="M49.507 426.113c.109.29-.221 1.421-.007 2.82.591 3.862 1.916 10.378 1.945 11.668.112 4.919-4.229 11.059-10.07 12.96-11.822 3.849-20.36-7.899-20.51-15.866-.116-6.033 12.463-15.474 23.228-17.27 2.061-.34 4.994 4.578 5.414 5.688z"/><g fill="none" stroke="#636568"><path d="M36.791 467.795c1.3 7.831-2.255 13.307-12.551 15.017-8.973 1.493-22.292 1.177-23.451-6.679-1.827-12.391 5.193-28.142 15.757-29.66 9.003-1.302 18.94 13.485 20.245 21.322z"/><path stroke-width="2" d="M23.122 474.867l5.016-8.957"/></g><path fill="none" stroke="#636568" stroke-width="2" d="M42.109 445.609l7.882-7.524"/><g fill="none" stroke="#636568"><path d="M89.487 417.436c1.447 6.806-3.823 10.121-8.093 15.473-4.271 5.352-8.07 10.252-12.329 11.157-8.521 1.81-14.254-8.619-18.215-16.524-4.939-9.854 1.359-15.935 11.792-18.154 8.523-1.812 24.434-3.297 26.845 8.048z"/><path stroke-width="2" d="M64.511 429.677l12.026-3.765"/></g><g fill="none" stroke="#636568"><path d="M91.273 416.029c-1.7 6.746 3.445 10.258 7.512 15.765 4.068 5.505 7.683 10.542 11.908 11.609 8.444 2.127 14.563-8.089 18.812-15.834 5.305-9.663-.76-15.977-11.106-18.582-8.443-2.127-24.295-4.201-27.126 7.042z"/><path stroke-width="2" d="M102.098 425.395l10.812 4.389"/></g><path fill="none" stroke="#636568" d="M130.565 428.752c-.102.297.25 1.422.06 2.822-.521 3.875-1.726 10.41-1.735 11.702-.021 4.919 4.431 10.982 10.309 12.774 11.878 3.633 20.199-8.271 20.202-16.24.004-6.033-12.73-15.244-23.526-16.84-2.064-.301-4.908 4.668-5.31 5.782z"/><path fill="none" stroke="#636568" stroke-width="2" d="M135.615 441.735l6.201 7.695"/><g fill="none" stroke="#636568"><path d="M146.838 464.873c-2.578 7.513.024 13.496 9.884 16.892 8.603 2.95 21.791 4.848 24.231-2.704 3.854-11.927-.469-28.616-10.633-31.864-8.664-2.771-20.896 10.168-23.482 17.676z"/><path stroke-width="2" d="M154.749 463.318l4.477 8.331"/></g><path fill="none" stroke="#F30000" stroke-width="4" d="M20.769 478.582c15.062-30.776 36.63-54.354 67.487-54.354 34.948 0 58.55 23.542 74.47 54.283"/><path fill="none" stroke="#6D6D6D" stroke-width="3" stroke-linecap="round" stroke-linejoin="bevel" d="M90.723 333.393l.133 33.474"/><path fill="#6D6D6D" d="M93.959 373.94c1.479-4.966 2.846-8.195 4.426-12.181l-15.133.061c.683 1.421 3.007 7.19 4.523 12.145 1.625 5.303 2.742 10.111 3.146 13.231.379-3.123 1.457-7.942 3.038-13.256z"/><path fill="none" d="M54.263 501.399h99v24h-99z"/><text transform="translate(54.263 516.31)" fill="#6D6D6D" font-family="'MyriadPro-Regular'" font-size="21">One step</text></svg>