<svg xmlns="http://www.w3.org/2000/svg" width="516.375" height="516.375" viewBox="0 0 516.375 516.375"><g fill="#FFF"><path d="M344.25 306l-86.062-86.062L172.125 306l15.3 13.389 61.2-61.201v210.374h19.125V258.188l61.2 61.201z"/><path d="M457.088 189.337c-9.562-47.812-53.551-84.15-103.272-84.15-17.216 0-32.516 3.825-45.9 11.475-22.949-42.075-66.937-68.85-116.662-68.85-74.587 0-133.875 59.288-133.875 133.875v7.65C22.95 204.638 0 237.15 0 277.312c0 53.549 42.075 95.625 95.625 95.625H229.5v-19.125H95.625c-42.075 0-76.5-34.426-76.5-76.5 0-36.337 24.862-66.938 59.288-74.587-1.913-7.65-1.913-13.388-1.913-21.038 0-63.112 51.638-114.75 114.75-114.75 49.725 0 91.8 32.513 109.014 76.5 15.301-11.475 34.426-19.125 53.551-19.125 45.898 0 82.235 34.425 86.062 78.413 32.513 7.65 57.375 38.25 57.375 74.587 0 42.074-34.425 76.5-76.5 76.5H286.875v19.125H420.75c53.55 0 95.625-42.076 95.625-95.625 0-40.162-24.862-74.587-59.287-87.975z"/></g></svg>