<svg xmlns="http://www.w3.org/2000/svg" width="512" height="512" viewBox="0 0 512 512"><path fill="#FFF" d="M440.685 214.8v67.15h64.48v17.13h-64.48v67.725h-18.254V299.08h-64.479v-17.13h64.479V214.8h18.254z"/><path fill="none" stroke="#FFF" stroke-width="22.677" d="M91.564 192.024c0-66.417 53.757-120.258 120.084-120.258 66.316 0 120.086 53.841 120.086 120.258 0 66.411-53.771 120.246-120.086 120.246-66.327.001-120.084-53.834-120.084-120.246z"/><path fill="none" stroke="#FFF" stroke-width="22.677" d="M39.864 447.883a86.667 86.667 0 0 1-1.5-16.054c0-66.409 76.443-120.266 170.757-120.266 94.281 0 170.712 53.856 170.712 120.266 0 4.933-.397 9.803-1.232 14.577"/></svg>