<svg xmlns="http://www.w3.org/2000/svg" width="348.839" height="211.714" viewBox="0 0 348.839 211.714"><path fill="none" stroke="#000" stroke-width="3" d="M1.452 72.745C12.342 30.697 36.292 1.5 64.084 1.5c27.764 0 51.691 29.135 62.597 71.111M299.62 29.41l-80.184 11.798m66.829-7.617c0 6.503 2.322 9.29 7.432 10.916 9.555 3.041 20.241-7.816 17.886-13.704-.93-2.323-3.252-2.555-7.781-2.207m44.189 33.515s-29.562-20.278-36.932-24.747m-2.497-2.264c-7.085-7.896-18.001-14.052-22.182-5.923"/><path fill="none" stroke="#42B5E8" stroke-width="3" d="M147.364 25.694h27.28"/><path fill="#42B5E8" d="M178.896 23.849c-2.976-.899-4.911-1.727-7.298-2.685v9.08c.854-.406 4.322-1.787 7.298-2.685 3.185-.962 6.073-1.621 7.946-1.855-1.874-.235-4.761-.893-7.946-1.855z"/><path fill="none" stroke="#42B5E8" stroke-width="3" d="M186.628 50.778h-27.28"/><path fill="#42B5E8" d="M155.096 52.623c2.976.899 4.911 1.727 7.298 2.685v-9.08c-.854.406-4.322 1.787-7.298 2.685-3.185.962-6.073 1.621-7.946 1.855 1.873.235 4.761.893 7.946 1.855z"/><path fill="none" d="M32.926 116.216h284.986v95.498H32.926z"/><text transform="translate(38.081 128.996)"><tspan x="0" y="0" fill="gray" font-family="'MyriadPro-Regular'" font-size="18">Orthodontic titanium alloy wire bent </tspan><tspan x="16.47" y="21.6" fill="gray" font-family="'MyriadPro-Regular'" font-size="18">into a knot will spring back to its </tspan><tspan x="82.457" y="43.2" fill="gray" font-family="'MyriadPro-Regular'" font-size="18">original shape.</tspan></text></svg>