<?xml version="1.0" encoding="utf-8"?>
<!-- Generator: Adobe Illustrator 13.0.0, SVG Export Plug-In . SVG Version: 6.00 Build 14948)  -->
<!DOCTYPE svg PUBLIC "-//W3C//DTD SVG 1.1//EN" "http://www.w3.org/Graphics/SVG/1.1/DTD/svg11.dtd">
<svg version="1.1" id="Capa_1" xmlns="http://www.w3.org/2000/svg" xmlns:xlink="http://www.w3.org/1999/xlink" x="0px" y="0px"
	 width="512px" height="512px" viewBox="0 0 512 512" enable-background="new 0 0 512 512" xml:space="preserve">
<g>
	<g>
		<path fill="#FFFFFF" d="M486.326,471.005c1.15,0.814,2.454,1.247,3.767,1.247c1.718,0,3.411-0.724,4.765-2.035
			c0.363-0.35,0.74-0.761,0.843-0.88c0.044-0.054,0.084-0.115,0.119-0.181c1.302-2.459,1.083-5.002-0.597-6.979
			c-0.399-0.466-0.752-0.864-0.881-0.987c-0.064-0.064-0.144-0.121-0.237-0.168c-1.171-0.601-2.354-0.907-3.522-0.907
			c-1.603,0-3.152,0.568-4.601,1.69c-0.066,0.051-0.121,0.104-0.166,0.162c-0.105,0.136-0.44,0.593-0.736,1.028
			C483.149,465.824,483.664,469.118,486.326,471.005z M487.161,463.372c0.03-0.031,0.057-0.063,0.08-0.098
			c0.103-0.141,0.537-0.522,1.047-0.775c1.108-0.559,2.351-0.677,3.587-0.348c0.58,0.154,1.381,0.649,1.785,1.104
			c1.05,1.172,1.378,2.538,0.956,3.948c-0.146,0.494-0.402,0.985-0.505,1.094c-0.961,1.288-2.305,1.989-3.803,1.989
			c-1.83,0-3.566-1.064-4.221-2.588C485.735,466.879,485.406,465.228,487.161,463.372z"/>
		<path fill="#FFFFFF" d="M502.776,481.097h-0.617c-0.183,0-0.361-0.031-0.529-0.097c-0.189-0.054-0.356-0.142-0.499-0.254
			c0.072,1.569,0.124,3.138,0.162,4.706c0.024,1.008,0.033,2.02,0.039,3.027c-1.192,0.001-2.383,0.014-3.573,0.074
			c-0.062-2.55-0.193-5.75-0.3-7.664c-0.059-1.047-1.693-1.053-1.634,0c0.133,2.38,0.303,6.752,0.335,9.389
			c-3.741-0.017-7.483-0.074-11.224-0.088c-0.012-2.625-0.062-6.854-0.066-9.164c0-1.053-1.635-1.053-1.633,0
			c0.003,1.72,0.032,4.505,0.052,6.899c-1.321,0.061-2.642,0.075-3.962,0.076c-0.185-3.665-0.043-7.33,0.031-11
			c0.331-0.688,0.856-1.186,1.587-1.428c2.316-0.243,4.645-0.343,6.973-0.378c2.336-0.034,4.671,0.001,7.008,0.028
			c0.218,0.001,0.433-0.001,0.649-0.001c-0.021-0.097-0.031-0.195-0.031-0.299c0-0.438-0.003-0.884-0.011-1.328
			c-1.125-0.011-2.25-0.025-3.376-0.035c-2.403-0.021-4.811-0.021-7.212,0.087c-1.35,0.062-2.697,0.154-4.039,0.298
			c-0.104-0.012-0.215-0.004-0.336,0.034c-1.168,0.355-2.158,1.157-2.666,2.279c-0.046,0.104-0.076,0.211-0.09,0.319
			c-0.054,0.102-0.087,0.224-0.09,0.365c-0.075,3.903-0.238,7.802,0,11.702c0.021,0.338,0.204,0.564,0.438,0.687
			c0.121,0.113,0.287,0.189,0.503,0.189c1.543,0,3.088-0.006,4.632-0.078c0.003,0.519,0.005,1,0.007,1.414
			c0,0.145,0.032,0.265,0.085,0.372c0.093,0.264,0.321,0.476,0.688,0.476c4.367,0.007,8.732,0.091,13.101,0.096
			c0.684,0.001,0.889-0.736,0.617-1.183c-0.001-0.173-0.003-0.357-0.006-0.546c1.252-0.065,2.504-0.074,3.756-0.074
			c0.197,0,0.354-0.064,0.47-0.164c0.45,0.067,0.957-0.192,0.955-0.777c-0.007-2.557-0.108-5.104-0.188-7.658
			C502.78,481.298,502.777,481.198,502.776,481.097z"/>
		<path fill="#FFFFFF" d="M511.565,469.608l-0.085-0.052c-0.129-0.111-0.291-0.166-0.485-0.166h-4.438l-0.015-0.307
			c-0.027-0.576-0.049-1.155-0.069-1.732c-0.028-0.808-0.058-1.643-0.104-2.461c-0.026-0.428-0.229-0.865-1.554-0.865
			c-0.278,0-0.57,0.02-0.825,0.035c-0.23,0.014-0.442,0.027-0.617,0.027c-0.216-0.002-0.393-0.007-0.559-0.012
			c-0.162-0.006-0.313-0.01-0.457-0.01c-0.617,0-1.039,0.089-1.623,0.567c-0.162,0.134-0.243,0.324-0.24,0.566
			c0.013,1.491,0.167,2.98,0.314,4.235l0.039,0.334l-1.357,0.101c-0.833,0.061-1.664,0.122-2.499,0.183
			c-0.131,0.008-0.251,0.045-0.36,0.107l-0.078,0.032c-0.536,0.143-0.557,0.525-0.479,1.359l0.014,0.153
			c0.057,0.634,0.078,1.265,0.09,1.89c0.005,0.445,0.007,0.892,0.007,1.329c0,0.117,0.022,0.214,0.057,0.299
			c0.11,0.284,0.374,0.386,0.506,0.418l0.038,0.01c0.096,0.038,0.192,0.056,0.294,0.056h3.131h0.952l0.008,0.314
			c0.01,0.466,0.025,0.934,0.041,1.4c0.025,0.735,0.052,1.497,0.056,2.251c0.003,0.512,0.385,0.67,0.549,0.713l0.035,0.013
			c0.1,0.039,0.199,0.059,0.309,0.059h0.601h3.153c0.214,0,0.39-0.067,0.523-0.202l0.259,0.198l0,0l-0.219-0.237
			c0.154-0.152,0.222-0.329,0.222-0.542c0-1.216-0.008-2.521-0.066-3.852l-0.015-0.335h4.489c0.492,0,0.705-0.354,0.738-0.686
			l0.009-0.073l0.037-0.063c0.073-0.119,0.109-0.252,0.109-0.403v-3.976C512,469.876,511.765,469.69,511.565,469.608z
			 M510.432,473.918h-4.629c-0.592,0-0.712,0.492-0.734,0.642l-0.012,0.051c-0.031,0.096-0.044,0.191-0.038,0.294
			c0.068,1.051,0.102,2.181,0.11,3.663l0.001,0.322h-2.309l-0.007-0.312c-0.012-0.371-0.024-0.741-0.037-1.111
			c-0.024-0.724-0.05-1.471-0.054-2.211c0-0.067-0.011-0.135-0.029-0.212l-0.013-0.045l0.002-0.045
			c0.008-0.24-0.071-0.461-0.215-0.612c-0.131-0.134-0.31-0.202-0.53-0.202h-1.119h-3.07l-0.002-0.318
			c-0.002-0.084-0.004-0.167-0.006-0.251c-0.011-0.579-0.032-1.145-0.068-1.682l-0.021-0.319l1.437-0.105
			c0.795-0.059,1.589-0.116,2.385-0.173c0.067-0.006,0.136-0.02,0.213-0.045l0.057-0.017l0.112,0.004
			c0.224,0,0.418-0.073,0.532-0.204c0.104-0.117,0.143-0.28,0.118-0.483c-0.212-1.691-0.364-3.114-0.418-4.556l-0.013-0.334h2.767
			l0.013,0.308c0.019,0.442,0.034,0.887,0.051,1.331c0.03,0.864,0.062,1.76,0.115,2.638c0.004,0.061,0.015,0.116,0.027,0.169
			l0.011,0.076c0,0.29,0.158,0.78,0.746,0.78h4.629v2.96H510.432L510.432,473.918z"/>
	</g>
</g>
</svg>
