<?xml version="1.0" encoding="utf-8"?>
<!-- Generator: Adobe Illustrator 13.0.0, SVG Export Plug-In . SVG Version: 6.00 Build 14948)  -->
<!DOCTYPE svg PUBLIC "-//W3C//DTD SVG 1.1 Basic//EN" "http://www.w3.org/Graphics/SVG/1.1/DTD/svg11-basic.dtd">
<svg version="1.1" baseProfile="basic" id="Layer_1"
	 xmlns="http://www.w3.org/2000/svg" xmlns:xlink="http://www.w3.org/1999/xlink" x="0px" y="0px" width="612px" height="792px"
	 viewBox="0 0 612 792" xml:space="preserve">
<g>
	<path fill="#FFFFFF" d="M274.436,373.132c-3.848,0-6.979-3.131-6.979-6.979c0-3.848,3.131-6.979,6.979-6.979
		c3.849,0,6.979,3.131,6.979,6.979C281.415,370.001,278.284,373.132,274.436,373.132z M274.436,360.588
		c-3.07,0-5.564,2.494-5.564,5.565c0,3.07,2.494,5.564,5.564,5.564s5.565-2.494,5.565-5.564
		C280.001,363.082,277.506,360.588,274.436,360.588z"/>
	<path fill="#FFFFFF" d="M286.195,384.892c-0.389,0-0.704-0.315-0.704-0.704c0-6.094-4.955-11.049-11.049-11.049
		c-6.094,0-11.055,4.948-11.055,11.042c0,0.389-0.316,0.704-0.705,0.704c-0.389,0-0.71-0.314-0.71-0.704
		c0-6.872,5.591-12.464,12.463-12.464s12.464,5.592,12.464,12.464C286.899,384.57,286.584,384.892,286.195,384.892z"/>
	<path fill="#FFFFFF" d="M295.595,370.939H284.62c-0.389,0-0.704-0.314-0.704-0.704c0-0.389,0.315-0.704,0.704-0.704h10.975
		c0.389,0,0.704,0.315,0.704,0.704C296.299,370.625,295.984,370.939,295.595,370.939z"/>
	<path fill="#FFFFFF" d="M290.104,376.423c-0.389,0-0.704-0.315-0.704-0.704v-10.975c0-0.389,0.315-0.704,0.704-0.704
		s0.704,0.315,0.704,0.704v10.975C290.815,376.108,290.493,376.423,290.104,376.423z"/>
</g>
</svg>
