<?xml version="1.0" encoding="utf-8"?>
<!-- Generator: Adobe Illustrator 13.0.0, SVG Export Plug-In . SVG Version: 6.00 Build 14948)  -->
<!DOCTYPE svg PUBLIC "-//W3C//DTD SVG 1.1//EN" "http://www.w3.org/Graphics/SVG/1.1/DTD/svg11.dtd">
<svg version="1.1" id="Capa_1" xmlns="http://www.w3.org/2000/svg" xmlns:xlink="http://www.w3.org/1999/xlink" x="0px" y="0px"
	 width="612px" height="792px" viewBox="0 0 612 792" enable-background="new 0 0 612 792" xml:space="preserve">
<g>
	<g>
		<path fill="#FFFFFF" d="M380.432,90c40.979,0,61.463,27.95,61.463,59.909c0,39.915-35.582,76.836-81.953,76.836
			c-38.825,0-61.475-22.962-60.398-60.875C299.543,133.917,326.502,90,380.432,90z M254.243,702
			c-32.356,0-56.083-19.964-33.434-107.804l37.148-155.797c6.469-24.951,7.527-34.927,0-34.927c-9.719,0-51.72,17.233-76.561,34.211
			l-16.157-26.959c78.721-66.867,169.291-106.084,208.104-106.084c32.344,0,37.748,38.929,21.573,98.826L352.39,567.237
			c-7.552,28.941-4.303,38.917,3.226,38.917c9.706,0,41.536-12.013,72.803-36.971l18.342,24.964
			C370.187,672.012,286.6,702,254.243,702z"/>
	</g>
</g>
</svg>
