<?xml version="1.0" encoding="utf-8"?>
<!-- Generator: Adobe Illustrator 13.0.0, SVG Export Plug-In . SVG Version: 6.00 Build 14948)  -->
<!DOCTYPE svg PUBLIC "-//W3C//DTD SVG 1.1//EN" "http://www.w3.org/Graphics/SVG/1.1/DTD/svg11.dtd">
<svg version="1.1" id="Capa_1" xmlns="http://www.w3.org/2000/svg" xmlns:xlink="http://www.w3.org/1999/xlink" x="0px" y="0px"
	 width="612px" height="612px" viewBox="0 0 612 612" enable-background="new 0 0 612 612" xml:space="preserve">
<g>
	<g>
		<circle fill="#FFFFFF" cx="312.954" cy="173.864" r="34.773"/>
		<polygon fill="#FFFFFF" points="389.454,459 347.728,459 347.728,236.455 236.455,236.455 236.455,264.273 278.182,264.273 
			278.182,459 236.455,459 236.455,486.818 389.454,486.818 		"/>
		<path fill="#FFFFFF" d="M612,306C612,137.004,474.995,0,306,0C137.004,0,0,137.004,0,306c0,168.995,137.004,306,306,306
			C474.995,612,612,474.995,612,306z M27.818,306C27.818,152.36,152.36,27.818,306,27.818c153.64,0,278.182,124.542,278.182,278.182
			c0,153.64-124.542,278.182-278.182,278.182C152.36,584.182,27.818,459.64,27.818,306z"/>
	</g>
</g>
</svg>
