<?xml version="1.0" encoding="utf-8"?>
<!-- Generator: Adobe Illustrator 13.0.0, SVG Export Plug-In . SVG Version: 6.00 Build 14948)  -->
<!DOCTYPE svg PUBLIC "-//W3C//DTD SVG 1.1//EN" "http://www.w3.org/Graphics/SVG/1.1/DTD/svg11.dtd">
<svg version="1.1" id="Capa_1" xmlns="http://www.w3.org/2000/svg" xmlns:xlink="http://www.w3.org/1999/xlink" x="0px" y="0px"
	 width="512px" height="512px" viewBox="0 0 512 512" enable-background="new 0 0 512 512" xml:space="preserve">
<g display="none">
	<g id="user" display="inline">
		<g>
			<path fill="#D80027" d="M364.721,314.225C405.633,282,432,232.129,432,176C432,78.8,353.2,0,256,0S80,78.8,80,176
				c0,56.128,26.368,106,67.28,138.225C73.919,351.615,22.288,425.473,16.576,512h32.048
				c6.176-81.022,58.848-148.927,131.344-177.456c23.04,11.071,48.768,17.458,76.032,17.458c27.28,0,52.992-6.385,76.031-17.458
				C404.527,363.073,457.2,430.978,463.376,512h32.048C489.729,425.473,438.079,351.615,364.721,314.225z M256,320.001
				c-79.536,0-144-64.464-144-144.001c0-79.536,64.464-144,144-144s144,64.464,144,144C400,255.537,335.536,320.001,256,320.001z"/>
		</g>
	</g>
</g>
<g>
	<path fill="#FFFFFF" d="M440.685,214.8v67.15h64.48v17.13h-64.48v67.725h-18.254V299.08h-64.479v-17.13h64.479V214.8H440.685z"/>
</g>
<path fill="none" stroke="#FFFFFF" stroke-width="22.6772" d="M91.564,192.024c0-66.417,53.757-120.258,120.084-120.258
	c66.316,0,120.086,53.841,120.086,120.258c0,66.411-53.771,120.246-120.086,120.246C145.321,312.271,91.564,258.436,91.564,192.024z
	"/>
<path fill="none" stroke="#FFFFFF" stroke-width="22.6772" d="M39.864,447.883c-0.987-5.241-1.5-10.605-1.5-16.054
	c0-66.409,76.443-120.266,170.757-120.266c94.281,0,170.712,53.856,170.712,120.266c0,4.933-0.397,9.803-1.232,14.577"/>
</svg>
