<?xml version="1.0" encoding="utf-8"?>
<!-- Generator: Adobe Illustrator 13.0.0, SVG Export Plug-In . SVG Version: 6.00 Build 14948)  -->
<!DOCTYPE svg PUBLIC "-//W3C//DTD SVG 1.1//EN" "http://www.w3.org/Graphics/SVG/1.1/DTD/svg11.dtd">
<svg version="1.1" id="Capa_1" xmlns="http://www.w3.org/2000/svg" xmlns:xlink="http://www.w3.org/1999/xlink" x="0px" y="0px"
	 width="485.227px" height="485.227px" viewBox="0 0 485.227 485.227" enable-background="new 0 0 485.227 485.227"
	 xml:space="preserve">
<g>
	<path fill="none" stroke="#FFFFFF" stroke-width="19.8425" d="M30.345,166.795c-40.457,42.47-40.457,109.18,0,151.626
		c0,16.75,13.562,30.329,30.324,30.329h60.651c16.764,0,30.327-13.579,30.327-30.329c8.678-9.104,15.105-19.468,20.047-30.321h70.93
		v-15.166h212.282l30.316-30.325l-30.316-30.325h-67.794l-24.999,22.829l-44.456-22.829h-75.032V197.12h-70.93
		c-4.942-10.863-11.369-21.201-20.047-30.325c0-16.762-13.562-30.322-30.327-30.322H60.669
		C43.907,136.473,30.345,150.035,30.345,166.795z M72.3,212.285c16.764,0,30.327,13.562,30.327,30.326
		c0,16.747-13.564,30.325-30.327,30.325c-16.762,0-30.324-13.578-30.324-30.325C41.977,225.848,55.539,212.285,72.3,212.285z"/>
</g>
</svg>
