<?xml version="1.0" encoding="utf-8"?>
<!-- Generator: Adobe Illustrator 13.0.0, SVG Export Plug-In . SVG Version: 6.00 Build 14948)  -->
<!DOCTYPE svg PUBLIC "-//W3C//DTD SVG 1.1//EN" "http://www.w3.org/Graphics/SVG/1.1/DTD/svg11.dtd">
<svg version="1.1" id="Capa_1" xmlns="http://www.w3.org/2000/svg" xmlns:xlink="http://www.w3.org/1999/xlink" x="0px" y="0px"
	 width="612px" height="792px" viewBox="0 0 612 792" enable-background="new 0 0 612 792" xml:space="preserve">
<path fill="#FFFFFF" d="M601.148,546.254l-156.9-122.036c-14.956-11.628-33.625-18.031-52.568-18.031H268.246
	c-6.493,0-12.889-2.194-18.013-6.178L93.345,277.981c-5.935-4.622-13.314-6.652-20.781-5.717c-2.88,0.361-5.635,1.156-8.203,2.326
	l-9.122-19.434c2.261-1.8,4.264-3.946,5.913-6.42c4.169-6.255,5.653-13.76,4.178-21.13l-9.582-47.905
	c-1.477-7.388-5.738-13.755-11.999-17.924c-6.25-4.162-13.754-5.637-21.112-4.156c-7.374,1.472-13.732,5.729-17.903,11.985
	c-4.169,6.255-5.653,13.76-4.177,21.13l9.581,47.905c2.621,13.114,14.219,22.633,27.577,22.633c0.181,0,0.362-0.009,0.544-0.013
	l12.494,26.616c-5.697,11.703-2.648,26.227,8.025,34.532l156.899,122.037c14.957,11.627,33.625,18.031,52.569,18.031h0.037V578.65
	H114.385c-15.52,0-28.145,12.626-28.145,28.146v19.162c0,4.961,4.021,8.982,8.982,8.982h306.601c4.961,0,8.983-4.021,8.983-8.982
	v-19.162c0-15.52-12.626-28.146-28.146-28.146h-0.599V462.478h9.618c6.492,0,12.89,2.194,18.013,6.178l156.893,122.029
	c4.986,3.879,10.957,5.931,17.268,5.931c8.759,0,16.862-3.961,22.23-10.864C615.608,573.502,613.396,555.785,601.148,546.254z
	 M27.753,235.119l-9.582-47.907c-0.533-2.666,0.002-5.38,1.51-7.641c1.507-2.261,3.807-3.8,6.487-4.335
	c0.677-0.137,1.358-0.204,2.032-0.204c1.979,0,3.912,0.578,5.591,1.697c2.264,1.508,3.805,3.813,4.341,6.494l9.582,47.908
	c0.533,2.666-0.002,5.38-1.51,7.641c-1.15,1.726-2.763,3.026-4.659,3.787c-0.461,0.104-0.917,0.251-1.369,0.434
	c-0.158,0.04-0.312,0.086-0.473,0.119c-0.651,0.132-1.322,0.2-1.989,0.2C32.892,243.309,28.702,239.866,27.753,235.119z
	 M364.096,578.649h-10.179c-4.96,0-8.982,4.021-8.982,8.982s4.022,8.982,8.982,8.982h28.743c5.613,0,10.18,4.566,10.18,10.18v10.181
	H104.204v-10.181c0-5.613,4.567-10.18,10.18-10.18h201.207c4.961,0,8.982-4.021,8.982-8.982s-4.021-8.982-8.982-8.982h-29.343
	V462.477h77.848V578.649z M591.9,574.723c-1.939,2.495-4.873,3.927-8.048,3.927c-2.276,0-4.434-0.741-6.237-2.146l-156.894-122.03
	c-8.261-6.425-18.574-9.962-29.042-9.962H268.246c-14.97,0-29.722-5.061-41.541-14.248L69.809,308.229
	c-4.43-3.447-5.231-9.857-1.786-14.287c1.669-2.146,4.076-3.515,6.775-3.853c0.43-0.054,0.858-0.081,1.285-0.081
	c2.249,0,4.42,0.743,6.227,2.149l156.894,122.03c8.26,6.425,18.574,9.963,29.042,9.963h123.435c14.97,0,29.723,5.061,41.541,14.247
	l156.896,122.034C594.548,563.881,595.348,570.29,591.9,574.723z"/>
</svg>
